<svg xmlns="http://www.w3.org/2000/svg" version="1.1" xmlns:xlink="http://www.w3.org/1999/xlink" width="512" height="512" x="0" y="0" viewBox="0 0 512 512" style="enable-background:new 0 0 512 512" xml:space="preserve" class=""><g><path d="m507.48 301.267.155-.069-91.937-205.635C407.115 76.385 388.01 64 367.01 64H144.99c-21 0-40.104 12.385-48.688 31.563L4.365 301.198l.155.069C1.717 306.947 0 313.249 0 320v85.333C0 428.865 19.135 448 42.667 448h426.667C492.865 448 512 428.865 512 405.333V320c0-6.751-1.717-13.053-4.52-18.733zM115.781 104.271c5.146-11.5 16.615-18.938 29.208-18.938H367.01c12.594 0 24.063 7.438 29.208 18.938l77.576 173.513c-1.487-.158-2.934-.451-4.461-.451H42.667c-1.527 0-2.974.293-4.461.451l77.575-173.513zm374.886 301.062c0 11.76-9.573 21.333-21.333 21.333H42.667c-11.76 0-21.333-9.573-21.333-21.333V320c0-11.76 9.573-21.333 21.333-21.333h426.667c11.76 0 21.333 9.573 21.333 21.333v85.333z" fill="#000000" opacity="1" data-original="#000000"></path><circle cx="426.667" cy="362.667" r="21.333" fill="#000000" opacity="1" data-original="#000000"></circle></g></svg>